control3min_grf.mot
version=1
nRows=12
nColumns 19
inDegrees=yes
endheader
time	1_ground_force_vx	1_ground_force_vy	1_ground_force_vz	1_ground_force_px	1_ground_force_py	1_ground_force_pz	1_ground_torque_x	1_ground_torque_y	1_ground_torque_z	2_ground_force_vx	2_ground_force_vy	2_ground_force_vz	2_ground_force_px	2_ground_force_py	2_ground_force_pz	2_ground_torque_x	2_ground_torque_y	2_ground_torque_z
            0.005000	          -54.910602	         1203.377825	         -105.632425	           -0.110000	            0.006065	           -0.363160	           -0.248322	            5.442037	           -0.477702	          -30.480999	         1368.005883	           91.241195	           -0.148599	            0.005832	           -0.665422	            0.030870	           -1.385464	           -0.092406
            0.005500	          -55.413473	         1199.410764	         -105.373036	           -0.109916	            0.006065	           -0.363138	           -0.236866	            5.126910	           -0.450420	          -31.035469	         1365.796173	           90.670413	           -0.148365	            0.005833	           -0.665544	            0.039681	           -1.746284	           -0.115930
            0.006000	          -55.412737	         1197.247108	         -105.244754	           -0.109810	            0.006064	           -0.363089	           -0.251358	            5.430846	           -0.477402	          -32.197496	         1363.214522	           90.474000	           -0.148247	            0.005833	           -0.665500	            0.041610	           -1.761744	           -0.116924
            0.006500	          -55.550079	         1194.363421	         -105.394337	           -0.109679	            0.006065	           -0.363140	           -0.276971	            5.955063	           -0.525493	          -32.375693	         1360.636591	           90.230248	           -0.148129	            0.005834	           -0.665429	            0.042252	           -1.775710	           -0.117756
            0.007000	          -55.961294	         1190.576552	         -105.134417	           -0.109567	            0.006065	           -0.363193	           -0.299997	            6.382431	           -0.563604	          -32.790215	         1358.610966	           89.800839	           -0.148140	            0.005834	           -0.665513	            0.037290	           -1.545069	           -0.102125
            0.007500	          -56.875284	         1187.327599	         -104.228937	           -0.109448	            0.006065	           -0.363218	           -0.299981	            6.262404	           -0.549742	          -33.247559	         1355.479871	           89.461379	           -0.147931	            0.005834	           -0.665434	            0.030593	           -1.247253	           -0.082318
            0.008000	          -57.377548	         1184.440695	         -103.643930	           -0.109606	            0.006065	           -0.363249	           -0.276832	            5.714628	           -0.500056	          -33.471903	         1352.717356	           89.310831	           -0.147834	            0.005834	           -0.665356	            0.028052	           -1.133669	           -0.074849
            0.008500	          -57.649847	         1181.192064	         -102.785895	           -0.109544	            0.006065	           -0.363175	           -0.251468	            5.152340	           -0.448350	          -34.069110	         1349.401506	           89.017694	           -0.147666	            0.005835	           -0.665261	            0.030263	           -1.198635	           -0.079072
            0.009000	          -58.107035	         1176.864812	         -102.619884	           -0.109391	            0.006065	           -0.363241	           -0.245675	            4.975752	           -0.433874	          -34.480873	         1346.638238	           88.820304	           -0.147536	            0.005835	           -0.665330	            0.037280	           -1.455961	           -0.096031
            0.009500	          -57.693968	         1173.620490	         -102.680673	           -0.109258	            0.006065	           -0.363237	           -0.263550	            5.361185	           -0.469053	          -35.031212	         1343.322390	           88.574084	           -0.147393	            0.005836	           -0.665234	            0.040313	           -1.545878	           -0.101930
            0.010000	          -57.555295	         1169.834120	         -102.513823	           -0.109124	            0.006065	           -0.363300	           -0.293848	            5.972570	           -0.523383	          -35.488076	         1340.008722	           87.811606	           -0.147258	            0.005836	           -0.665141	            0.038663	           -1.459893	           -0.095668
            0.010500	          -57.599199	         1167.307653	         -101.928408	           -0.109185	            0.006065	           -0.363109	           -0.311760	            6.318148	           -0.551696	          -35.619484	         1337.431461	           87.427042	           -0.147246	            0.005836	           -0.665157	            0.032794	           -1.231344	           -0.080492
